<?xml version="1.0" standalone="no"?>
<!DOCTYPE svg PUBLIC "-//W3C//DTD SVG 20010904//EN"
 "http://www.w3.org/TR/2001/REC-SVG-20010904/DTD/svg10.dtd">
<svg version="1.0" xmlns="http://www.w3.org/2000/svg"
 width="512.000000pt" height="512.000000pt" viewBox="0 0 512.000000 512.000000"
 preserveAspectRatio="xMidYMid meet">
<metadata>
Created by potrace 1.16, written by Peter Selinger 2001-2019
</metadata>
<g transform="translate(0.000000,512.000000) scale(0.100000,-0.100000)"
fill="#000000" stroke="none">
<path d="M0 4928 l0 -193 24 66 c50 141 154 245 294 295 l67 24 -192 0 -193 0
0 -192z"/>
<path d="M4802 5096 c140 -50 244 -154 294 -295 l24 -66 0 193 0 192 -192 0
-193 0 67 -24z"/>
<path d="M1110 4061 c0 -13 208 -181 224 -181 13 0 224 26 316 39 36 5 124 16
195 25 159 21 175 26 175 65 0 16 -6 33 -12 39 -18 14 -898 27 -898 13z"/>
<path d="M1580 3828 c0 -7 12 -50 26 -96 18 -56 33 -86 47 -94 12 -6 80 -54
152 -106 177 -129 412 -300 530 -384 22 -16 110 -79 195 -141 307 -223 360
-259 374 -254 7 3 21 26 29 52 16 45 16 47 -6 69 -12 12 -75 59 -139 104 -64
46 -122 89 -128 97 -9 11 4 25 67 71 160 117 181 132 305 225 l127 94 21 67
c21 69 25 108 12 108 -4 0 -39 -24 -78 -52 -40 -29 -109 -80 -155 -113 -46
-33 -160 -116 -254 -184 -160 -117 -171 -123 -192 -110 -21 13 -255 181 -498
359 -57 41 -165 119 -242 174 -76 54 -143 105 -149 112 -14 17 -44 18 -44 2z"/>
<path d="M3408 3803 c-26 -21 -57 -45 -68 -53 -22 -16 -40 -66 -159 -440 -40
-124 -104 -322 -142 -440 -38 -118 -88 -271 -110 -340 -21 -69 -51 -160 -65
-202 -14 -42 -23 -82 -19 -87 9 -15 110 -14 122 2 8 9 74 208 108 325 8 28 26
28 62 -1 15 -13 51 -40 78 -59 28 -19 104 -74 170 -122 219 -159 210 -154 295
-156 100 -3 110 -2 110 10 0 10 -74 66 -440 330 -107 78 -201 147 -207 153
-10 10 -8 27 11 82 14 39 41 122 61 185 20 63 89 275 153 470 64 195 117 359
117 365 0 23 -33 13 -77 -22z"/>
<path d="M3544 3812 c-14 -9 -34 -69 -28 -85 2 -7 23 -18 47 -25 23 -7 89 -28
147 -46 58 -19 159 -51 225 -71 66 -21 133 -44 148 -52 51 -26 108 -86 138
-145 25 -50 29 -68 29 -142 0 -92 -26 -172 -68 -209 -18 -17 -23 -17 -44 -4
-43 28 -223 77 -320 87 -106 11 -243 1 -335 -24 -85 -23 -190 -66 -205 -84
-25 -29 -59 -152 -43 -152 3 0 47 20 98 45 139 68 227 88 382 89 106 1 147 -3
223 -23 99 -25 112 -40 46 -54 -36 -7 -76 -5 -161 9 -27 5 -33 2 -47 -25 -35
-67 -12 -87 108 -98 177 -14 354 81 424 230 45 94 56 135 55 212 -1 124 -48
231 -140 317 -75 70 -83 73 -498 203 -82 26 -154 49 -160 51 -5 2 -15 0 -21
-4z"/>
<path d="M1690 3492 c0 -10 26 -99 59 -197 32 -99 87 -265 121 -370 l62 -190
-34 -28 c-18 -15 -100 -76 -183 -136 -82 -59 -199 -143 -260 -187 -60 -44
-180 -131 -265 -193 -182 -131 -190 -138 -190 -151 0 -6 37 -10 93 -10 l94 0
89 66 c49 36 107 77 129 92 23 15 161 115 309 222 278 203 344 250 586 422
136 96 160 115 160 128 -1 3 -20 20 -45 38 -43 33 -44 33 -77 16 -33 -17 -112
-71 -223 -151 -32 -24 -64 -42 -69 -40 -5 2 -15 21 -22 43 -7 21 -50 153 -95
292 l-81 252 -67 50 c-71 53 -91 60 -91 32z"/>
<path d="M1265 3124 c-210 -24 -368 -85 -521 -200 -159 -120 -277 -284 -338
-469 -75 -225 -74 -425 0 -640 59 -171 158 -314 304 -440 323 -278 845 -299
1196 -49 123 88 304 301 304 358 0 31 -35 136 -47 140 -6 3 -29 -30 -51 -75
-61 -120 -118 -188 -248 -299 -115 -99 -336 -173 -519 -174 -124 0 -216 17
-322 61 -340 142 -543 439 -543 795 0 344 176 626 489 783 247 124 600 106
820 -42 19 -13 38 -20 42 -16 8 8 -23 126 -39 149 -24 37 -211 98 -345 113
-94 11 -122 11 -182 5z"/>
<path d="M4246 2891 l-38 -39 28 -24 c199 -164 293 -320 339 -559 19 -102 19
-166 0 -268 -69 -363 -311 -620 -665 -707 -91 -23 -294 -22 -380 0 -167 45
-280 107 -398 220 -89 85 -166 190 -196 269 -25 67 -37 62 -70 -34 -23 -64
-20 -81 19 -139 171 -254 392 -398 680 -445 440 -72 856 146 1049 548 61 128
87 235 94 383 9 224 -41 404 -166 594 -49 74 -213 240 -238 240 -11 0 -37 -18
-58 -39z"/>
<path d="M2042 2560 c-23 -17 -42 -33 -42 -36 0 -3 25 -82 56 -175 30 -93 54
-174 52 -180 -2 -7 -113 -11 -313 -12 l-310 -2 -69 -50 c-38 -28 -71 -56 -74
-63 -3 -9 83 -12 385 -13 213 -1 399 -2 412 -2 26 -2 21 8 150 -397 34 -107
71 -217 81 -245 10 -27 48 -144 85 -258 37 -116 71 -207 77 -205 6 2 24 44 39
92 l29 89 -50 156 c-27 86 -106 327 -175 536 -68 209 -155 473 -192 587 -51
155 -72 208 -84 208 -9 0 -35 -14 -57 -30z"/>
<path d="M2357 2148 c-15 -11 -15 -18 -5 -53 20 -67 13 -65 214 -65 100 0 185
-4 188 -9 3 -4 -15 -71 -40 -147 -24 -77 -67 -210 -95 -297 l-51 -158 29 -82
c15 -45 28 -83 29 -85 1 -1 7 0 15 3 8 3 22 33 32 68 11 34 38 121 62 192 23
72 68 211 100 310 32 99 62 186 68 193 6 7 20 12 31 11 72 -5 1136 2 1136 9 0
4 -25 25 -55 47 -30 22 -55 42 -55 46 0 26 -94 29 -825 29 -593 0 -765 -3
-778 -12z"/>
<path d="M0 193 l0 -193 193 0 192 0 -66 24 c-141 50 -245 154 -295 294 l-24
67 0 -192z"/>
<path d="M5106 350 c-10 -54 -56 -138 -103 -190 -60 -66 -121 -108 -202 -136
l-66 -24 193 0 192 0 0 190 c0 105 -2 190 -4 190 -2 0 -6 -14 -10 -30z"/>
</g>
</svg>
